<svg xmlns="http://www.w3.org/2000/svg" viewBox="0 0 436.92 133.07"><defs><style>.cls-1,.cls-2{fill:#4f6466;}.cls-2,.cls-3{fill-rule:evenodd;}.cls-3{fill:#22c7b8;}</style></defs><title>logo</title><g id="Capa_2" data-name="Capa 2"><g id="_42" data-name="42"><path class="cls-1" d="M164.36,56a15.67,15.67,0,0,1-5.74-1,13.51,13.51,0,0,1-7.58-7.3,14.77,14.77,0,0,1,0-11.09,13.32,13.32,0,0,1,3-4.39,13.8,13.8,0,0,1,4.58-2.9,16.68,16.68,0,0,1,11.78.11,12,12,0,0,1,4.62,3.37l-3.24,3a10.05,10.05,0,0,0-3.31-2.36,9.51,9.51,0,0,0-3.88-.79,10.42,10.42,0,0,0-3.87.69,8.94,8.94,0,0,0-3,2,9.24,9.24,0,0,0-2,3,10.31,10.31,0,0,0,0,7.62,9.3,9.3,0,0,0,2,3,8.79,8.79,0,0,0,3,2,10.22,10.22,0,0,0,3.87.7,9.68,9.68,0,0,0,3.88-.79,9.93,9.93,0,0,0,3.31-2.41l3.24,3a12.18,12.18,0,0,1-4.62,3.39A15.47,15.47,0,0,1,164.36,56Z"/><path class="cls-1" d="M179.87,55.61V28.66h5V51.38H199v4.23Z"/><path class="cls-1" d="M202.2,26.47l5.2-5.28h5.69l-6.73,5.28Zm.73,29.14V28.66h5v27Z"/><path class="cls-1" d="M215.21,55.61V28.66h4.12l16.9,20.79h-2V28.66h4.93v27H235L218.14,34.82h2V55.61Z"/><path class="cls-1" d="M246.39,55.61V28.66h5v27Z"/><path class="cls-1" d="M271.15,56a15.7,15.7,0,0,1-5.74-1,13.51,13.51,0,0,1-7.58-7.3,14.77,14.77,0,0,1,0-11.09,13.47,13.47,0,0,1,3-4.39,13.8,13.8,0,0,1,4.58-2.9,16.68,16.68,0,0,1,11.78.11,12,12,0,0,1,4.62,3.37l-3.23,3a10.26,10.26,0,0,0-3.31-2.36,9.6,9.6,0,0,0-3.89-.79,10.45,10.45,0,0,0-3.87.69,9,9,0,0,0-5.06,5,10.18,10.18,0,0,0,0,7.62,9.12,9.12,0,0,0,2,3,8.89,8.89,0,0,0,3,2,10.25,10.25,0,0,0,3.87.7,9.77,9.77,0,0,0,3.89-.79,10.14,10.14,0,0,0,3.31-2.41l3.23,3a12.18,12.18,0,0,1-4.62,3.39A15.47,15.47,0,0,1,271.15,56Z"/><path class="cls-1" d="M282.27,55.61,294.4,28.66h4.93l12.16,27h-5.27l-10.4-24.29h2L287.39,55.61Zm5.58-6.24,1.39-3.92h14.51l1.35,3.92Z"/><path class="cls-1" d="M160.24,102.19a20,20,0,0,1-6-.9,13.66,13.66,0,0,1-4.6-2.33l1.73-3.89a14.17,14.17,0,0,0,4,2.12,14.63,14.63,0,0,0,4.89.85,10.39,10.39,0,0,0,3.42-.47,4,4,0,0,0,1.93-1.25,2.81,2.81,0,0,0,.61-1.79,2.46,2.46,0,0,0-.88-2A6.51,6.51,0,0,0,163,91.36a31.94,31.94,0,0,0-3.12-.81c-1.14-.25-2.28-.55-3.43-.91a15.57,15.57,0,0,1-3.13-1.36,6.18,6.18,0,0,1-3.16-5.76,7.31,7.31,0,0,1,1.17-4,8.14,8.14,0,0,1,3.58-2.93,14.81,14.81,0,0,1,6.11-1.1,19.24,19.24,0,0,1,4.81.62A14,14,0,0,1,170,76.86l-1.58,3.89a14.91,14.91,0,0,0-3.74-1.6,14.39,14.39,0,0,0-3.69-.52,9.58,9.58,0,0,0-3.35.5,4.1,4.1,0,0,0-1.91,1.33,3,3,0,0,0-.6,1.83,2.49,2.49,0,0,0,.87,2,6.31,6.31,0,0,0,2.27,1.18c.94.28,2,.55,3.14.81s2.3.55,3.43.9A15.15,15.15,0,0,1,168,88.51a6.67,6.67,0,0,1,2.29,2.19,6.47,6.47,0,0,1,.86,3.49,7.25,7.25,0,0,1-1.17,4,8.16,8.16,0,0,1-3.6,2.93A14.93,14.93,0,0,1,160.24,102.19Z"/><path class="cls-1" d="M172.29,101.81l12.12-26.95h4.93l12.17,27h-5.28L185.84,77.52h2l-10.43,24.29Zm5.58-6.24,1.38-3.93h14.52l1.35,3.93Z"/><path class="cls-1" d="M204.93,101.81V74.86h4.12L226,95.65h-2V74.86h4.93v27h-4.12L207.86,81h2v20.79Z"/><path class="cls-1" d="M241.58,101.81V79.1h-8.93V74.86h22.87V79.1h-8.93v22.71Z"/><path class="cls-1" d="M254.13,101.81l12.13-26.95h4.93l12.16,27h-5.27l-10.4-24.29h2l-10.44,24.29Zm5.58-6.24,1.39-3.93h14.51L277,95.57Z"/><path class="cls-1" d="M297.4,101.81V74.86h5v27Z"/><path class="cls-1" d="M318,102.19a20,20,0,0,1-6-.9,13.66,13.66,0,0,1-4.6-2.33l1.73-3.89a14.17,14.17,0,0,0,4,2.12A14.63,14.63,0,0,0,318,98a10.39,10.39,0,0,0,3.42-.47,4,4,0,0,0,1.93-1.25,2.81,2.81,0,0,0,.61-1.79,2.46,2.46,0,0,0-.88-2,6.51,6.51,0,0,0-2.29-1.19,31.94,31.94,0,0,0-3.12-.81c-1.14-.25-2.28-.55-3.43-.91a15.57,15.57,0,0,1-3.13-1.36A6.18,6.18,0,0,1,308,82.52a7.31,7.31,0,0,1,1.17-4,8.14,8.14,0,0,1,3.58-2.93,14.81,14.81,0,0,1,6.11-1.1,19.24,19.24,0,0,1,4.81.62,14,14,0,0,1,4.16,1.77l-1.58,3.89a14.91,14.91,0,0,0-3.74-1.6,14.39,14.39,0,0,0-3.69-.52,9.58,9.58,0,0,0-3.35.5,4.1,4.1,0,0,0-1.91,1.33,3,3,0,0,0-.6,1.83,2.49,2.49,0,0,0,.87,2,6.31,6.31,0,0,0,2.27,1.18c.94.28,2,.55,3.14.81s2.3.55,3.43.9a15.39,15.39,0,0,1,3.12,1.35,6.67,6.67,0,0,1,2.29,2.19,6.47,6.47,0,0,1,.86,3.49,7.25,7.25,0,0,1-1.17,4,8.16,8.16,0,0,1-3.6,2.93A14.93,14.93,0,0,1,318,102.19Z"/><path class="cls-1" d="M330.09,101.81l12.12-26.95h4.93l12.17,27H354L343.64,77.52h2l-10.43,24.29Zm5.58-6.24,1.38-3.93h14.52l1.35,3.93Z"/><path class="cls-1" d="M362.73,101.81V74.86H375.4q4.82,0,7.35,1.91a6.06,6.06,0,0,1,2.54,5.1,6.5,6.5,0,0,1-1,3.67,6.67,6.67,0,0,1-2.67,2.35,8.14,8.14,0,0,1-3.64.83l.69-1.39a9.72,9.72,0,0,1,4.08.83,6.54,6.54,0,0,1,2.85,2.41,7,7,0,0,1,1,3.92A6.28,6.28,0,0,1,384,99.88q-2.64,1.94-7.83,1.93Zm5-3.93h8.12a8.23,8.23,0,0,0,4.27-.92,3.65,3.65,0,0,0,0-5.91,8,8,0,0,0-4.27-.94h-8.51V86.22h7.47a7.28,7.28,0,0,0,4-.93,3.08,3.08,0,0,0,1.43-2.77,3.12,3.12,0,0,0-1.43-2.81,7.38,7.38,0,0,0-4-.92h-7.08Z"/><path class="cls-1" d="M397,97.57h15.21v4.24H392V74.86H411.7V79.1H397Zm-.38-11.51h13.4v4.12h-13.4Z"/><path class="cls-1" d="M417.82,101.81V74.86h5V97.57h14.09v4.24Z"/><path class="cls-2" d="M29.2,10.8A67,67,0,1,0,133.9,68.3,63.19,63.19,0,1,1,29.2,10.8Z"/><path class="cls-3" d="M104,103.17A56.5,56.5,0,1,0,15.68,54.65,53.33,53.33,0,1,1,104,103.17Z"/><path class="cls-2" d="M38.63,47.22c0-2.09-2.72-3.82-6-3.82s-6,1.73-6,3.82,2.82,3.72,6,3.72,6-1.73,6-3.72ZM85.73,96a4.63,4.63,0,0,0-3.26-1.37,4.72,4.72,0,1,0,0,9.44A4.75,4.75,0,0,0,85.73,96ZM65.85,70.53a11.21,11.21,0,0,0,0-22.41H45.62v.36a1,1,0,0,1-1,1H40.09C38.81,51.57,36,53,32.64,53c-4.44,0-8-2.54-8-5.8s3.54-5.91,8-5.91c3.27,0,6,1.37,7.26,3.36h4.72a1,1,0,0,1,1,1v.45H65.85a13.25,13.25,0,1,1,0,26.5H56.33A11.18,11.18,0,0,0,45.17,83.87,11.39,11.39,0,0,0,56.51,95.13l7.71-.64L62,91.41a5.12,5.12,0,0,1,1.28-7.26L84.82,69a5.58,5.58,0,0,1,3.91-.9,5.2,5.2,0,0,1,3.35,2.17L100,81.34a5.07,5.07,0,0,1,.82,3.9,4.81,4.81,0,0,1-2.09,3.36L88.18,96a7.06,7.06,0,0,1,.91,3.35,6.59,6.59,0,0,1-2,4.63,6.2,6.2,0,0,1-4.62,2,6.55,6.55,0,0,1-4.72-2l-.37-.36-.27.09a4.71,4.71,0,0,1-3.9.9,5,5,0,0,1-3.36-2.08L65.49,96.4,56.33,97a13.2,13.2,0,1,1,0-26.4c3.17,0,6.26-.1,9.52-.1Z"/><path class="cls-3" d="M82.74,100.3,86,101.76,83.37,99.3a1.1,1.1,0,0,0-.54-1.18,1.25,1.25,0,0,0-1.82.37,1.38,1.38,0,0,0,.37,1.81,1.24,1.24,0,0,0,1.36,0Z"/></g></g></svg>